# xmcd
#
# Track frame offsets: 
#        150
#        11545
#        24912
#        34032
#        47035
#        59382
#        70715
#        81222
#        92137
#        101435
#        114002
#
# Disc length: 1537 seconds
#
# Revision: 1
# Processed by: cddbd v1.4PL0 Copyright (c) Steve Scherf et al.
# Submitted via: ExactAudioCopy v0.90b3
#
DISCID=7905ff0b
DTITLE=Merle Haggard - My Farewell To Elvis
DYEAR=1900
DGENRE=Country
TTITLE0=From Graceland To The Promised Land
TTITLE1=In The Ghetto
TTITLE2=Don't Be Cruel (To A Heart That's True)
TTITLE3=Jailhouse Rock
TTITLE4=Love Me Tender
TTITLE5=That's All Right (Mama)
TTITLE6=Heartbreak Hotel
TTITLE7=Blue Christmas
TTITLE8=Blue Suede Shoes
TTITLE9=Are You Lonesome Tonight
TTITLE10=Merle's Farewell To Elvis
EXTD=
EXTT0=
EXTT1=
EXTT2=
EXTT3=
EXTT4=
EXTT5=
EXTT6=
EXTT7=
EXTT8=
EXTT9=
EXTT10=
PLAYORDER=
